<?xml version="1.0" standalone="no"?>
<!DOCTYPE svg PUBLIC "-//W3C//DTD SVG 20010904//EN"
 "http://www.w3.org/TR/2001/REC-SVG-20010904/DTD/svg10.dtd">
<svg version="1.0" xmlns="http://www.w3.org/2000/svg"
 width="250.000000pt" height="250.000000pt" viewBox="0 0 250.000000 250.000000"
 preserveAspectRatio="xMidYMid meet">

<g transform="translate(0.000000,250.000000) scale(0.100000,-0.100000)"
fill="#000000" stroke="none">
<path d="M892 2168 c-16 -16 -15 -56 4 -112 16 -47 12 -142 -5 -131 -14 8
-235 -15 -246 -26 -16 -17 48 -64 136 -99 76 -31 78 -32 68 -58 -8 -21 -7 -29
6 -38 10 -8 12 -14 6 -19 -6 -3 -11 -13 -11 -22 0 -9 -42 -56 -94 -104 -93
-88 -127 -139 -142 -219 -7 -35 -1 -37 27 -12 25 24 89 43 164 49 56 5 63 3
115 -32 58 -39 68 -57 35 -63 -11 -2 -34 -15 -52 -28 -17 -13 -40 -24 -50 -24
-38 0 -127 -64 -161 -115 -18 -28 -46 -65 -62 -82 -17 -19 -30 -43 -30 -59 0
-14 -9 -37 -20 -51 -28 -36 -25 -50 4 -16 23 27 27 28 127 30 75 1 91 -1 60
-6 -25 -5 -47 -13 -49 -19 -2 -7 -11 -12 -21 -12 -9 0 -26 -7 -37 -15 -19 -15
-19 -15 1 -30 17 -14 18 -17 5 -25 -8 -5 -33 -12 -55 -16 -30 -4 -41 -10 -41
-23 0 -15 6 -16 55 -9 30 5 58 11 63 14 4 3 8 1 8 -4 0 -18 -42 -47 -83 -58
l-42 -11 31 -7 c43 -10 64 -35 74 -93 l9 -48 -3 52 c-2 32 2 60 10 71 18 27
98 37 136 17 21 -10 28 -11 26 -2 -3 7 -14 16 -26 22 -12 5 -22 14 -22 19 0
14 74 -2 86 -18 7 -10 35 -15 93 -17 58 -2 85 -7 90 -17 7 -12 9 -11 15 4 4
12 -2 27 -22 48 -54 60 -55 70 -1 18 43 -41 62 -52 87 -52 24 0 35 -6 41 -22
8 -21 8 -21 13 -1 5 17 15 22 56 24 28 2 50 2 50 -1 -1 -20 4 -30 12 -25 6 4
8 11 5 16 -3 5 1 6 10 3 10 -4 34 11 70 45 64 61 82 67 31 11 -41 -46 -44 -54
-16 -47 11 3 20 1 20 -4 0 -5 6 -9 14 -9 8 0 28 -17 45 -37 l31 -38 0 31 c0
32 15 54 38 54 8 0 20 7 26 15 14 19 86 33 86 16 0 -6 -6 -11 -14 -11 -8 0
-17 -4 -20 -8 -2 -4 27 -9 66 -9 38 -1 75 -6 80 -11 6 -6 18 -6 32 1 l23 11
-23 25 c-13 14 -22 26 -21 27 1 2 28 -1 58 -5 55 -7 56 -7 67 22 12 31 8 48
-20 90 -18 25 -25 27 -87 27 -78 0 -157 13 -254 41 -91 27 -82 32 13 8 41 -11
129 -24 195 -30 100 -9 123 -14 138 -31 9 -11 17 -17 17 -12 0 4 -8 16 -17 27
-10 10 -18 24 -19 30 0 7 -2 22 -2 35 -1 13 -13 34 -27 48 -14 14 -34 42 -45
63 -27 54 -94 108 -156 128 -41 13 -54 22 -59 41 -3 14 -18 37 -34 51 -15 14
-33 42 -41 61 -7 19 -23 46 -36 60 -28 31 -31 55 -15 102 7 20 11 43 10 50 -5
39 2 60 17 54 30 -11 266 -8 278 4 16 16 -30 51 -136 103 -80 39 -86 44 -81
67 3 14 23 47 44 74 45 56 50 95 18 127 -50 50 -257 124 -433 154 -108 18
-297 20 -314 3z m309 -14 c125 -22 245 -57 338 -100 83 -38 111 -59 111 -83 0
-10 -3 -12 -8 -5 -8 13 -70 47 -91 50 -8 2 -17 8 -21 15 -5 6 -13 8 -20 4 -9
-6 -11 -4 -5 5 6 10 4 12 -8 7 -9 -3 -42 3 -72 13 -123 42 -255 64 -397 64
-119 1 -138 3 -138 17 0 9 3 19 7 22 12 13 210 7 304 -9z m-122 -45 c20 -1 28
-3 19 -6 -11 -3 -18 -14 -18 -29 0 -23 -4 -24 -60 -26 -33 -1 -70 -2 -82 -2
-16 -1 -25 7 -32 27 -14 39 5 49 78 43 32 -4 75 -7 95 -7z m-9 -139 c166 -21
330 -65 469 -126 66 -29 23 -23 -80 12 -127 43 -306 82 -414 90 -101 7 -127
12 -120 24 8 13 40 13 145 0z m145 -60 c102 -21 308 -82 335 -99 31 -21 0 -21
-51 -1 -113 45 -402 105 -537 112 -24 1 -46 6 -49 12 -10 15 189 0 302 -24z
m-128 -15 c106 -15 222 -41 333 -76 77 -24 271 -101 267 -106 -2 -1 -40 10
-85 27 -178 65 -412 116 -637 140 -261 27 -263 27 -115 29 74 0 181 -6 237
-14z m78 -70 l30 -13 -27 1 c-16 1 -28 5 -28 9 0 4 -37 9 -82 11 l-83 3 80 2
c50 1 91 -4 110 -13z m102 -20 c0 -11 -4 -12 -14 -4 -7 6 -13 13 -13 15 0 2 6
4 13 4 8 0 14 -7 14 -15z m-217 -5 c11 0 50 -41 50 -51 0 -5 -11 3 -25 16 -35
36 -88 34 -126 -4 -31 -32 -38 -29 -14 7 16 22 70 43 93 36 8 -2 18 -4 22 -4z
m107 1 c20 -6 35 -6 38 0 4 5 14 5 26 -2 12 -6 18 -13 15 -16 -3 -3 -11 -1
-19 5 -10 8 -13 6 -13 -8 0 -10 4 -17 7 -14 4 2 10 0 14 -6 4 -6 11 -8 16 -5
14 9 11 -8 -7 -33 -8 -12 -12 -22 -8 -22 5 0 -7 -11 -26 -25 -36 -27 -45 -30
-35 -16 3 5 0 13 -7 17 -7 4 -10 4 -6 -1 4 -4 3 -16 -3 -27 -7 -13 -7 -23 1
-33 8 -9 6 -22 -7 -49 -19 -42 -41 -45 -65 -11 -17 23 -17 24 5 31 12 5 25 7
28 7 3 -1 5 11 4 27 -1 20 2 27 12 23 10 -4 13 8 13 46 0 53 -19 105 -42 114
-23 9 26 7 59 -2z m196 -60 c-11 -98 -22 -121 -49 -103 -8 5 -6 30 5 88 13 69
18 80 33 76 16 -4 17 -12 11 -61z m55 0 c-2 -26 -8 -54 -15 -60 -10 -9 -11 -1
-7 36 7 56 11 73 19 73 3 0 5 -22 3 -49z m-408 29 c-8 -5 -19 -10 -25 -10 -5
0 -3 5 5 10 8 5 20 10 25 10 6 0 3 -5 -5 -10z m68 -22 c24 -29 23 -62 -2 -93
-14 -16 -25 -25 -26 -19 0 6 7 17 15 24 17 14 21 35 4 24 -8 -5 -8 -1 0 14 16
31 14 41 -14 54 -14 6 -25 15 -25 20 0 11 32 -6 48 -24z m-195 -6 c-3 -12 -9
-22 -14 -22 -5 0 -3 11 3 25 13 30 20 28 11 -3z m610 22 c14 -5 14 -10 0 -50
-13 -40 -33 -60 -33 -33 0 5 -4 7 -10 4 -5 -3 -10 -1 -10 4 0 6 5 11 11 11 5
0 7 5 4 11 -9 13 3 59 14 59 5 0 16 -3 24 -6z m-432 -31 c12 -16 12 -17 -2 -5
-14 11 -16 9 -11 -15 4 -27 4 -27 -12 -8 -15 19 -16 19 -6 -8 13 -36 13 -38
-2 -34 -7 1 -21 16 -30 32 -13 23 -17 26 -18 11 0 -11 -3 -16 -7 -13 -3 4 0
18 7 32 16 30 60 34 81 8z m56 -40 c-3 -10 -5 -4 -5 12 0 17 2 24 5 18 2 -7 2
-21 0 -30z m-158 -56 c6 -6 14 -7 18 -3 4 4 1 12 -7 17 -13 9 -13 10 0 6 8 -2
15 -10 15 -18 0 -8 11 -19 25 -26 l25 -12 -23 -1 c-35 0 -92 61 -92 96 1 27 2
27 15 -10 7 -21 18 -43 24 -49z m132 0 l-24 -22 19 27 c10 14 21 24 23 22 3
-3 -6 -15 -18 -27z m279 -16 c102 -6 118 -8 86 -15 -64 -14 -266 6 -266 26 0
6 11 7 28 3 15 -4 83 -11 152 -14z m-40 -55 c0 -14 -5 -28 -10 -31 -6 -4 -9
-12 -8 -18 3 -16 -25 -77 -35 -77 -5 0 -6 -4 -2 -9 3 -5 1 -12 -4 -15 -16 -10
-22 12 -7 26 10 10 12 27 6 61 -4 26 -3 47 1 47 4 0 5 8 2 18 -3 14 3 18 26
20 27 2 31 -1 31 -22z m160 1 c0 -14 -6 -24 -14 -24 -11 0 -12 5 -3 24 5 13
12 23 14 23 1 0 3 -10 3 -23z m-452 -6 c11 -6 10 -10 -4 -15 -9 -3 -19 -4 -22
-1 -3 3 1 5 9 5 11 0 11 2 -1 10 -8 5 -10 10 -5 10 6 0 16 -4 23 -9z m57 -42
c11 -16 1 -19 -13 -3 -7 8 -8 14 -3 14 5 0 13 -5 16 -11z m54 -30 c-19 -39
-23 -41 -52 -34 -18 4 -68 13 -112 20 -44 7 -66 13 -48 14 17 1 67 -6 110 -14
43 -8 79 -15 81 -15 1 0 2 5 2 10 0 11 30 60 36 60 3 0 -5 -18 -17 -41z m322
18 c-10 -9 -11 -8 -5 6 3 10 9 15 12 12 3 -3 0 -11 -7 -18z m-411 3 c8 -5 11
-10 5 -10 -5 0 -17 5 -25 10 -8 5 -10 10 -5 10 6 0 17 -5 25 -10z m410 -48 c0
-11 -9 -29 -20 -42 -18 -21 -25 -20 -21 2 0 4 -7 5 -17 2 -10 -3 -8 2 7 13 14
10 30 23 35 30 15 16 16 16 16 -5z m49 -63 c15 -24 15 -24 -6 -6 -21 18 -21
18 -28 -2 -3 -12 -10 -21 -15 -21 -5 0 -15 -6 -22 -14 -15 -15 -72 -46 -85
-46 -4 0 8 10 27 21 47 28 90 70 90 87 0 20 21 10 39 -19z m-129 17 c0 -2 -6
-9 -14 -15 -11 -9 -16 -9 -22 0 -4 7 -3 9 4 5 6 -3 13 -2 17 4 6 10 15 14 15
6z m204 -128 c9 -12 16 -27 16 -33 0 -24 -148 -79 -171 -64 -10 6 -11 9 -1 9
6 0 12 4 12 8 0 4 -17 7 -37 5 -33 -2 -32 -1 13 10 57 15 119 50 128 72 8 21
22 19 40 -7z m-289 2 c-27 -12 -43 -12 -25 0 8 5 22 9 30 9 10 0 8 -3 -5 -9z
m-320 -103 c77 -34 54 -35 -27 -2 -61 25 -98 25 -98 1 0 -6 5 -17 11 -23 18
-18 1 -33 -31 -26 -27 5 -30 3 -30 -21 0 -40 0 -41 -19 -48 -22 -8 -101 1
-101 12 0 18 84 100 122 119 52 26 92 23 173 -12z m735 3 c19 -10 44 -28 55
-41 17 -20 15 -19 -13 4 -18 14 -50 32 -71 38 -34 10 -47 8 -114 -17 -47 -17
-72 -31 -64 -36 9 -6 8 -8 -3 -9 -10 0 -8 -3 5 -9 13 -6 15 -9 5 -9 -13 -1
-13 -2 0 -11 28 -18 -112 -10 -159 9 l-45 18 60 8 c63 8 193 46 234 70 28 15
57 11 110 -15z m-357 13 c-7 -2 -19 -2 -25 0 -7 3 -2 5 12 5 14 0 19 -2 13 -5z
m-121 -95 c-7 -7 -12 -8 -12 -2 0 14 12 26 19 19 2 -3 -1 -11 -7 -17z m32 -30
c-4 -29 -10 -57 -14 -61 -5 -6 1 66 8 88 1 3 2 10 2 15 0 6 2 10 5 10 3 0 3
-24 -1 -52z m42 22 c7 -7 8 -30 1 -68 -5 -31 -7 -100 -4 -152 3 -54 1 -86 -3
-75 -7 17 -9 16 -10 -10 -1 -29 -1 -30 -11 -6 -20 49 -11 321 10 321 4 0 12
-5 17 -10z m-113 -30 c-3 -12 -8 -19 -11 -16 -5 6 5 36 12 36 2 0 2 -9 -1 -20z
m337 -36 c62 -12 115 -15 207 -12 105 4 125 3 136 -11 11 -14 10 -14 -5 -2
-12 9 -30 11 -53 7 -62 -12 -209 -7 -284 8 -41 9 -78 13 -82 10 -5 -3 -9 0 -9
7 0 7 -3 10 -6 6 -6 -6 -84 29 -84 37 0 2 22 -4 49 -14 26 -10 86 -26 131 -36z
m-146 5 c25 -16 48 -34 51 -39 3 -5 13 -7 23 -4 13 5 14 4 3 -4 -8 -6 -10 -15
-6 -22 5 -8 4 -11 -3 -6 -5 3 -12 2 -14 -3 -4 -13 -113 54 -112 68 1 6 2 18 3
26 2 20 3 20 55 -16z m-228 -97 c-1 -108 -3 -118 -17 -109 -39 24 -29 227 10
227 4 0 7 -53 7 -118z m77 103 c1 -5 -6 -11 -15 -13 -11 -2 -18 3 -18 13 0 17
30 18 33 0z m-378 -19 c84 1 87 0 35 -7 -30 -5 -95 -8 -145 -8 -121 2 -124 1
-105 -11 13 -8 13 -10 -2 -10 -9 0 -19 -8 -21 -17 -4 -14 -5 -12 -6 5 0 12 8
31 20 43 18 18 27 19 77 13 31 -5 98 -8 147 -8z m132 8 c-3 -3 -12 -4 -19 -1
-8 3 -5 6 6 6 11 1 17 -2 13 -5z m190 -41 c-3 -10 -5 -2 -5 17 0 19 2 27 5 18
2 -10 2 -26 0 -35z m-118 -55 c-44 -38 -72 -47 -84 -28 -3 6 -1 10 6 10 6 0
18 8 26 18 8 9 11 11 8 4 -6 -11 -3 -12 14 -3 11 7 21 16 21 21 0 5 9 12 20
15 11 3 21 14 21 23 1 13 3 12 6 -3 4 -14 -7 -30 -38 -57z m188 -5 c-2 -16 -4
-5 -4 22 0 28 2 40 4 28 2 -13 2 -35 0 -50z m103 27 c16 -11 32 -20 37 -19 21
4 34 -2 27 -13 -5 -8 -2 -9 9 -5 9 3 19 1 23 -5 5 -7 2 -8 -6 -3 -9 5 -11 4
-6 -4 4 -6 12 -9 17 -6 5 4 16 2 25 -3 14 -8 12 -10 -11 -16 -23 -6 -39 0 -81
29 -53 36 -83 65 -69 65 4 0 20 -9 35 -20z m-497 -17 c-7 -2 -19 -2 -25 0 -7
3 -2 5 12 5 14 0 19 -2 13 -5z m373 -4 c10 -17 -13 -36 -27 -22 -12 12 -4 33
11 33 5 0 12 -5 16 -11z m-292 -64 c8 -22 -38 -49 -71 -40 l-26 6 39 24 c46
29 50 30 58 10z m243 -52 c-3 -10 -5 -2 -5 17 0 19 2 27 5 18 2 -10 2 -26 0
-35z m447 5 c-9 -14 -64 -9 -64 5 0 8 3 16 6 19 8 9 64 -15 58 -24z m-804 8
c0 -2 -15 -6 -34 -8 -19 -2 -32 0 -30 4 5 8 64 12 64 4z m913 -3 c-7 -2 -19
-2 -25 0 -7 3 -2 5 12 5 14 0 19 -2 13 -5z m-499 -34 c-8 -14 -34 -11 -34 4 0
8 3 17 7 20 9 9 34 -13 27 -24z m-79 1 c3 -6 -1 -7 -9 -4 -18 7 -21 14 -7 14
6 0 13 -4 16 -10z m215 6 c0 -3 -4 -8 -10 -11 -5 -3 -10 -1 -10 4 0 6 5 11 10
11 6 0 10 -2 10 -4z m-355 -26 c10 -11 16 -20 13 -20 -3 0 -13 9 -23 20 -10
11 -16 20 -13 20 3 0 13 -9 23 -20z m170 0 c3 -5 1 -10 -4 -10 -6 0 -11 5 -11
10 0 6 2 10 4 10 3 0 8 -4 11 -10z m137 -12 c-7 -7 -12 -8 -12 -2 0 14 12 26
19 19 2 -3 -1 -11 -7 -17z m-612 -1 c0 -2 -10 -12 -22 -23 l-23 -19 19 23 c18
21 26 27 26 19z m554 -6 c3 -4 -6 -6 -19 -3 -14 2 -36 -3 -50 -12 -13 -9 -28
-16 -32 -16 -4 0 6 9 22 20 31 21 70 26 79 11z"/>
<path d="M1101 1558 c5 -10 11 -18 12 -18 2 0 3 8 3 18 0 10 -6 19 -13 19 -8
0 -9 -6 -2 -19z"/>
<path d="M1283 865 c0 -22 2 -30 4 -17 2 12 2 30 0 40 -3 9 -5 -1 -4 -23z"/>
<path d="M1132 870 c0 -14 2 -19 5 -12 2 6 2 18 0 25 -3 6 -5 1 -5 -13z"/>
<path d="M480 541 l0 -161 79 0 c71 0 82 2 95 22 23 33 21 113 -3 137 -16 16
-17 20 -5 25 9 3 14 21 14 49 0 63 -23 80 -111 85 l-69 4 0 -161z m100 74 c0
-19 -4 -35 -10 -35 -5 0 -10 16 -10 35 0 19 5 35 10 35 6 0 10 -16 10 -35z m0
-135 c0 -27 -4 -50 -10 -50 -5 0 -10 23 -10 50 0 28 5 50 10 50 6 0 10 -22 10
-50z"/>
<path d="M720 688 c0 -7 -9 -71 -20 -143 -26 -175 -28 -165 20 -165 38 0 40 2
40 30 0 23 4 30 20 30 16 0 20 -7 20 -30 0 -28 2 -30 40 -30 49 0 48 -5 16
180 l-23 135 -56 3 c-42 2 -57 -1 -57 -10z m74 -130 c6 -63 5 -68 -13 -68 -21
0 -21 3 -5 109 7 45 10 38 18 -41z"/>
<path d="M910 541 l0 -161 79 0 c71 0 82 2 95 22 23 32 20 100 -4 131 -17 22
-18 26 -5 37 21 17 19 73 -4 101 -16 19 -30 24 -90 27 l-71 4 0 -161z m105 74
c0 -16 -6 -30 -12 -32 -9 -3 -13 7 -13 32 0 25 4 35 13 33 6 -3 12 -17 12 -33z
m-1 -103 c-1 -7 -2 -28 -2 -47 -3 -55 -22 -41 -22 16 0 36 4 49 13 47 6 -3 12
-10 11 -16z"/>
<path d="M1115 683 c20 -53 55 -214 55 -255 l0 -48 35 0 35 0 0 53 c0 51 15
127 44 220 l15 47 -33 0 c-34 0 -34 0 -46 -66 -14 -74 -24 -70 -35 14 -7 52
-7 52 -42 52 -29 0 -34 -3 -28 -17z"/>
<path d="M1365 690 c-43 -17 -50 -37 -50 -152 0 -108 0 -110 28 -134 66 -57
167 -11 167 75 l0 41 -45 0 -45 0 0 -45 c0 -25 -4 -45 -9 -45 -9 0 -21 173
-13 203 8 31 27 12 27 -26 0 -37 0 -37 43 -37 37 0 42 3 42 24 0 12 -5 37 -11
54 -15 44 -81 64 -134 42z"/>
<path d="M1560 688 c0 -7 -9 -71 -20 -143 -26 -175 -28 -165 20 -165 38 0 40
2 40 30 0 23 4 30 20 30 16 0 20 -7 20 -30 0 -28 2 -30 40 -30 49 0 49 -1 16
185 l-22 130 -57 3 c-42 2 -57 -1 -57 -10z m72 -135 c4 -55 2 -63 -13 -63 -18
0 -19 10 -2 110 7 43 10 33 15 -47z"/>
<path d="M1714 658 c3 -24 10 -86 16 -138 17 -148 13 -140 69 -140 l49 0 7 68
c10 104 21 118 28 35 10 -101 11 -103 66 -103 l47 0 20 160 20 160 -37 0 c-43
0 -44 -2 -55 -135 -9 -101 -16 -86 -29 58 l-7 78 -36 -3 -37 -3 -11 -87 c-17
-124 -20 -125 -29 -10 l-8 102 -39 0 -39 0 5 -42z"/>
<path d="M877 653 c-11 -10 -8 -93 3 -93 6 0 10 23 10 50 0 51 -1 55 -13 43z"/>
<path d="M411 611 c-15 -10 -5 -35 26 -63 18 -17 19 -16 18 25 0 43 -15 56
-44 38z"/>
<path d="M2046 604 c-8 -22 -7 -74 2 -74 4 0 20 16 35 35 l28 35 -26 10 c-33
13 -32 13 -39 -6z"/>
<path d="M1111 593 c-1 -12 -5 -24 -10 -27 -11 -7 16 -66 30 -66 12 0 11 5 -5
65 -8 28 -15 40 -15 28z"/>
<path d="M1271 529 c-21 -60 -14 -91 25 -123 l36 -29 -17 26 c-11 17 -17 49
-18 92 -1 36 -5 65 -9 65 -3 0 -11 -14 -17 -31z"/>
<path d="M1483 543 c9 -2 23 -2 30 0 6 3 -1 5 -18 5 -16 0 -22 -2 -12 -5z"/>
<path d="M1115 435 c-5 -47 -10 -56 -31 -61 -20 -5 -22 -9 -13 -26 6 -11 8
-22 6 -25 -3 -2 -8 5 -12 16 -9 29 -54 28 -151 -4 -85 -28 -112 -27 -39 0 25
10 43 20 41 23 -3 2 -31 5 -63 6 -56 1 -58 2 -64 31 -7 30 -7 30 -8 3 0 -15
-5 -29 -10 -32 -5 -3 -7 -14 -4 -24 2 -10 -3 -24 -11 -31 -41 -35 -7 -52 114
-57 53 -2 70 0 60 7 -12 9 -10 10 7 6 13 -3 26 -1 29 5 3 5 12 7 20 4 7 -3 16
-1 19 4 9 15 27 12 20 -2 -4 -7 2 -4 12 7 24 26 51 25 73 -3 19 -23 70 -31 70
-11 0 6 7 9 15 5 8 -3 15 -1 15 5 0 6 5 7 10 4 6 -3 10 -2 10 3 0 4 21 9 47
11 26 1 51 5 56 8 6 3 29 5 52 5 29 -2 48 4 63 18 12 12 22 16 22 11 0 -6 -8
-14 -17 -19 -15 -9 -15 -11 -1 -26 12 -12 18 -13 21 -3 4 8 13 4 27 -13 12
-14 19 -19 15 -12 -4 7 0 12 9 12 9 0 16 -5 16 -11 0 -6 9 -8 21 -4 15 5 19 4
15 -4 -4 -6 0 -11 8 -11 9 0 16 5 16 11 0 8 5 8 15 -1 14 -12 77 -8 128 6 21
7 22 27 1 45 -10 8 -13 21 -9 37 4 17 2 22 -7 16 -15 -9 -78 -6 -93 5 -5 4
-20 2 -33 -4 -22 -12 -21 -13 27 -31 28 -10 49 -20 46 -22 -5 -5 -167 48 -179
58 -4 5 -21 4 -38 -2 -29 -10 -74 -7 -112 8 -15 6 -17 4 -11 -7 5 -8 -8 -1
-29 15 -37 28 -60 30 -37 2 9 -11 7 -15 -11 -20 -35 -9 -96 -7 -103 3 -3 5 -6
31 -7 56 -3 71 -24 78 -33 10z"/>
<path d="M1861 376 c-8 -9 -26 -16 -42 -16 -15 0 -31 -5 -35 -11 -8 -14 14
-29 33 -22 7 3 13 -1 13 -10 0 -8 7 -18 16 -21 8 -3 12 -2 9 4 -3 6 -1 10 4
10 6 0 11 -4 11 -9 0 -5 7 -12 16 -15 8 -3 12 -2 9 4 -3 6 -1 10 4 10 6 0 11
-5 11 -11 0 -6 7 -8 16 -5 8 3 24 1 35 -5 22 -11 139 -2 139 12 0 13 -50 83
-65 91 -8 5 -15 2 -19 -7 -3 -8 -16 -15 -28 -15 -23 -1 -23 -1 2 -15 33 -19
19 -19 -27 0 -19 8 -44 15 -54 15 -10 0 -22 7 -27 16 -8 14 -10 14 -21 0z"/>
<path d="M428 336 c-15 -17 -28 -36 -28 -42 0 -15 54 -24 105 -18 22 3 50 5
63 6 12 0 22 4 22 10 0 5 9 6 20 3 12 -4 20 -2 20 5 0 7 8 9 20 5 14 -4 20 -2
20 9 0 8 10 16 23 18 29 4 24 21 -10 30 -33 9 -94 1 -146 -18 -47 -17 -60 -18
-28 0 24 13 24 13 -15 18 -33 4 -42 0 -66 -26z"/>
<path d="M730 349 c0 -5 5 -7 10 -4 6 3 10 8 10 11 0 2 -4 4 -10 4 -5 0 -10
-5 -10 -11z"/>
<path d="M1750 350 c0 -5 5 -10 10 -10 6 0 10 5 10 10 0 6 -4 10 -10 10 -5 0
-10 -4 -10 -10z"/>
<path d="M1080 296 c0 -2 8 -10 18 -17 15 -13 16 -12 3 4 -13 16 -21 21 -21
13z"/>
</g>
</svg>
